<?xml version="1.0" encoding="UTF-8"?>
<svg version="1.1" xmlns="http://www.w3.org/2000/svg" width="1000" height="1000">
<path d="M0 0 C330 0 660 0 1000 0 C1000 330 1000 660 1000 1000 C670 1000 340 1000 0 1000 C0 670 0 340 0 0 Z " fill="#000000" transform="translate(0,0)"/>
<path d="M0 0 C20.41486201 15.7112778 33.88331837 35.91054172 37.87109375 61.71875 C39.97522705 79.69605811 39.06728832 98.87626005 33.31640625 116.12890625 C33.9228447 116.17607285 34.52928314 116.22323944 35.15409851 116.27183533 C47.59579648 117.24356993 60.03137138 118.2660708 72.4609375 119.3828125 C74.89517461 119.59969558 77.32941948 119.81649166 79.76367188 120.03320312 C83.44183923 120.36083984 87.11975416 120.6905687 90.79711914 121.02709961 C115.24144299 123.25820031 139.63832083 124.31643372 164.18383789 124.31420898 C166.91372444 124.31643464 169.64322868 124.33485973 172.37304688 124.35351562 C195.92741432 124.42797041 219.08793764 122.75017001 239.16015625 109.16796875 C241.31640625 108.12890625 241.31640625 108.12890625 243.33203125 108.2109375 C245.97031195 109.431402 247.56643014 111.09143133 249.56640625 113.19140625 C250.62601563 114.29162109 250.62601563 114.29162109 251.70703125 115.4140625 C252.238125 115.97996094 252.76921875 116.54585937 253.31640625 117.12890625 C251.79372059 121.99966581 249.010912 125.1934337 245.69140625 128.94140625 C244.84002075 129.91013672 244.84002075 129.91013672 243.97143555 130.8984375 C225.69303491 151.4409599 205.62201947 169.2149528 177.31640625 173.12890625 C174.33700328 173.27937861 171.36171666 173.29239246 168.37890625 173.296875 C167.51558182 173.30120041 166.65225739 173.30552582 165.76277161 173.3099823 C162.94726085 173.32012412 160.13193175 173.32014821 157.31640625 173.31640625 C156.34303314 173.31513733 155.36966003 173.31386841 154.36679077 173.31256104 C133.02240228 173.25961738 112.04531973 172.00277611 90.83203125 169.66015625 C89.61299606 169.52630524 88.39396088 169.39245422 87.13798523 169.25454712 C80.99725833 168.57814411 74.85917029 167.88569573 68.72387695 167.16162109 C57.60964888 165.88103181 46.60207936 164.86731257 35.40625 164.82421875 C33.98283043 164.81538162 33.98283043 164.81538162 32.53065491 164.80636597 C27.9840602 164.85100656 24.46890038 165.08581333 20.31640625 167.12890625 C15.98591009 167.64444151 15.98591009 167.64444151 13.8046875 165.96484375 C7.19519599 157.81140278 7.445215 145.04630437 8.31640625 135.12890625 C8.64640625 133.94296875 8.97640625 132.75703125 9.31640625 131.53515625 C10.95409961 125.45324453 10.68499497 119.19561211 10.69140625 112.94140625 C10.71589844 111.70326172 10.74039063 110.46511719 10.765625 109.18945312 C10.83167933 88.17316634 1.0261654 71.92937417 -13.18359375 57.19140625 C-29.23379798 41.0997955 -50.9120275 29.40330462 -73.87109375 28.94140625 C-94.31055974 29.17526742 -111.60895905 37.82161177 -126.32421875 51.6953125 C-134.06172439 59.67621649 -140.71435059 68.65041339 -147.43359375 77.48779297 C-149.5066086 80.20943473 -151.59585265 82.91855563 -153.68359375 85.62890625 C-154.51310745 86.70696461 -155.34253442 87.7850897 -156.171875 88.86328125 C-156.5838916 89.39888672 -156.9959082 89.93449219 -157.42041016 90.48632812 C-158.71038151 92.16373965 -159.99978218 93.84158854 -161.2890625 95.51953125 C-166.06790426 101.73777236 -170.85882798 107.94617661 -175.68359375 114.12890625 C-174.43964844 113.79117188 -173.19570313 113.4534375 -171.9140625 113.10546875 C-170.23313477 112.65471718 -168.55214163 112.20420952 -166.87109375 111.75390625 C-166.05705078 111.5321875 -165.24300781 111.31046875 -164.40429688 111.08203125 C-153.09554438 108.06636392 -142.41471249 106.77948793 -130.72412109 106.81323242 C-128.451004 106.81638213 -126.17920637 106.7928878 -123.90625 106.76757812 C-110.67741758 106.70926774 -98.4143977 109.00618468 -85.74609375 112.87890625 C-84.90546387 113.13494629 -84.06483398 113.39098633 -83.19873047 113.65478516 C-44.72251948 125.72817915 -13.73582127 152.50527207 4.94921875 188.07421875 C15.8093559 209.4605207 20.76364223 231.13853387 20.69140625 255.12890625 C20.69009201 256.20523819 20.69009201 256.20523819 20.68875122 257.30331421 C20.56112164 289.18730406 10.8367753 321.21404477 -9.68359375 346.12890625 C-10.32578857 346.9168457 -10.32578857 346.9168457 -10.98095703 347.72070312 C-30.02265233 371.01093079 -53.62838835 388.27167257 -82.43359375 397.44140625 C-83.23216797 397.69784912 -84.03074219 397.95429199 -84.85351562 398.21850586 C-89.56164928 399.66525585 -93.95892712 400.37349257 -98.87109375 400.87890625 C-102.02507867 401.54962709 -103.9440421 402.10799682 -105.87207031 404.76953125 C-108.31168765 409.23747285 -110.02756982 413.98599325 -111.77294922 418.75732422 C-124.6847558 452.38340709 -156.11904565 477.69129309 -187.95703125 492.0703125 C-206.83287125 500.37434812 -225.85123682 503.58835213 -246.37109375 503.62890625 C-247.17774475 503.63158508 -247.98439575 503.63426392 -248.81549072 503.63702393 C-269.11106367 503.62250384 -288.23768228 499.8043806 -306.68359375 491.12890625 C-307.30814453 490.84853516 -307.93269531 490.56816406 -308.57617188 490.27929688 C-320.79015842 484.78482229 -333.22098378 477.7320751 -342.68359375 468.12890625 C-342.68782569 468.76298306 -342.69205763 469.39705988 -342.69641781 470.05035114 C-342.79996923 485.51790825 -342.90864221 500.98541976 -343.02293301 516.45290089 C-343.07808239 523.93302234 -343.1315331 531.41314856 -343.1809082 538.89331055 C-343.22397535 545.41717253 -343.27030781 551.941002 -343.3204723 558.46481341 C-343.34689316 561.91532658 -343.37173933 565.36583406 -343.39266777 568.81638527 C-343.41615979 572.67947306 -343.44694581 576.54248501 -343.47827148 580.40551758 C-343.48402695 581.53481186 -343.48978241 582.66410614 -343.49571228 583.82762146 C-343.59982124 595.17453456 -344.78752797 605.83089222 -347.37109375 616.87890625 C-347.63728516 618.01980713 -347.90347656 619.16070801 -348.17773438 620.33618164 C-350.27468458 629.01940576 -352.82362461 637.0654105 -356.68359375 645.12890625 C-357.15539062 646.11632812 -357.6271875 647.10375 -358.11328125 648.12109375 C-365.64493275 662.81799208 -377.32555981 675.04339512 -391.68359375 683.12890625 C-392.43769531 683.5671875 -393.19179688 684.00546875 -393.96875 684.45703125 C-423.02397137 700.20565896 -461.86550133 702.56557105 -493.68359375 695.12890625 C-494.79033447 694.87947266 -494.79033447 694.87947266 -495.91943359 694.625 C-519.99795803 689.0457667 -541.32323802 677.72987675 -558.68359375 660.12890625 C-559.51632812 659.30648437 -560.3490625 658.4840625 -561.20703125 657.63671875 C-565.58887564 653.07541315 -569.09329379 648.23767482 -572.30859375 642.81640625 C-572.6641333 642.22939941 -573.01967285 641.64239258 -573.38598633 641.03759766 C-574.84437306 638.44515697 -575.69168701 636.54104005 -575.6328125 633.54296875 C-574.44775444 630.52911738 -572.87289376 628.36644698 -570.87109375 625.81640625 C-568.03485664 622.19884905 -565.28659107 618.58916126 -562.69921875 614.7890625 C-562.1885083 614.05792236 -561.67779785 613.32678223 -561.15161133 612.57348633 C-560.14685638 611.13278729 -559.16148447 609.67833524 -558.19799805 608.2097168 C-554.74009299 603.34850083 -554.74009299 603.34850083 -551.53173828 602.68164062 C-549.3125 602.67578125 -549.3125 602.67578125 -545.68359375 603.12890625 C-545.35488281 603.78375 -545.02617188 604.43859375 -544.6875 605.11328125 C-533.37479698 626.81895533 -516.62732761 641.81533935 -493.6796875 650.23046875 C-491.35915062 650.93194402 -489.03591525 651.54524753 -486.68359375 652.12890625 C-485.59046875 652.50015625 -484.49734375 652.87140625 -483.37109375 653.25390625 C-468.87254843 656.69423904 -450.14654599 656.98716333 -435.68359375 653.12890625 C-434.65234375 652.87238281 -433.62109375 652.61585938 -432.55859375 652.3515625 C-417.2757824 648.15239382 -406.90541359 640.65738432 -399.09375 626.9296875 C-390.27944813 609.42316549 -389.22521937 590.42015961 -389.29541016 571.17016602 C-389.29133169 569.25582075 -389.28598275 567.34147785 -389.27947998 565.42713928 C-389.26595847 560.29119863 -389.27103966 555.15544142 -389.28061724 550.01949811 C-389.28828567 544.61463301 -389.28114921 539.20978219 -389.27645874 533.80491638 C-389.27102517 524.74141659 -389.27813285 515.67799052 -389.29248047 506.61450195 C-389.30883689 496.16183133 -389.30348706 485.70933604 -389.28700125 475.25666958 C-389.27335894 466.24299488 -389.2714791 457.22937273 -389.27931726 448.21569103 C-389.28397426 442.84887407 -389.28467254 437.48213939 -389.27470779 432.11532784 C-389.26599904 427.07457119 -389.27213102 422.03403962 -389.28939056 416.99330711 C-389.29333311 415.15195717 -389.29225997 413.31058804 -389.28560257 411.46924591 C-389.25299923 401.53047918 -389.73277291 392.71461971 -392.68359375 383.12890625 C-394.59807762 373.29322905 -395.0856 363.50537054 -395.05859375 353.50390625 C-395.05877502 352.46174454 -395.05877502 352.46174454 -395.05895996 351.39852905 C-395.02987671 339.595631 -393.82550191 328.52673916 -390.68359375 317.12890625 C-390.39484375 315.98550781 -390.10609375 314.84210938 -389.80859375 313.6640625 C-379.43027247 276.18164322 -353.03119218 244.62943904 -319.93359375 224.94140625 C-304.2072423 216.27768096 -286.79925825 208.86832113 -268.68359375 208.12890625 C-268.60109375 207.32453125 -268.51859375 206.52015625 -268.43359375 205.69140625 C-267.47570976 201.14145732 -265.69478378 197.30237738 -263.68359375 193.12890625 C-263.28205078 192.29166016 -262.88050781 191.45441406 -262.46679688 190.59179688 C-256.62064499 178.65324335 -249.41080595 168.1765836 -240.68359375 158.12890625 C-239.58724609 156.84886719 -239.58724609 156.84886719 -238.46875 155.54296875 C-232.81111797 149.07994446 -226.70577216 143.18078243 -220.0168457 137.78417969 C-215.66945926 134.21995123 -212.38133107 130.44221021 -209.12109375 125.87890625 C-208.07582083 124.45064905 -207.02888046 123.02361102 -205.98046875 121.59765625 C-205.44099609 120.86160156 -204.90152344 120.12554687 -204.34570312 119.3671875 C-201.58727578 115.65254856 -198.72695667 112.01881804 -195.87109375 108.37890625 C-190.8964247 102.01959229 -186.01201314 95.59990008 -181.18359375 89.12890625 C-175.80845706 81.92709822 -170.35305977 74.79619253 -164.8190918 67.71582031 C-160.84417115 62.62891181 -156.90946526 57.5132822 -152.99609375 52.37890625 C-151.39902802 50.28966153 -149.80095545 48.2011937 -148.20214844 46.11328125 C-147.21447808 44.82264063 -146.22807995 43.53102509 -145.24316406 42.23828125 C-138.90934108 33.94092882 -132.25975584 26.09514696 -125.04003906 18.55273438 C-123.84168224 17.29484794 -122.6633779 16.01792386 -121.48828125 14.73828125 C-88.04743441 -20.60983822 -40.41505383 -28.17876388 0 0 Z " fill="#FDFDFD" transform="translate(665.68359375,147.87109375)"/>
<path d="M0 0 C17.70013445 13.43300021 29.88323757 32.19914012 35.30419922 53.74609375 C35.60068359 54.70902344 35.89716797 55.67195313 36.20263672 56.6640625 C40.35818849 71.39911533 39.61733991 88.13706882 35.30419922 102.74609375 C34.96388672 103.95265625 34.62357422 105.15921875 34.27294922 106.40234375 C26.26558679 132.58858304 8.81844414 152.91660123 -15.13330078 165.93359375 C-37.39241498 177.6269526 -63.27822314 180.5948471 -87.53125 173.43505859 C-113.05095069 165.31227545 -135.15288147 148.39890027 -147.87548828 124.546875 C-150.91116243 118.47713629 -153.04564908 112.02958796 -155.10107422 105.57421875 C-155.62271125 103.97076305 -156.20530883 102.38740561 -156.79736328 100.80859375 C-158.98906301 93.3377564 -158.87793684 85.53802663 -158.88330078 77.80859375 C-158.89554687 76.88369141 -158.90779297 75.95878906 -158.92041016 75.00585938 C-158.93370085 68.68391788 -158.16405032 62.8889958 -156.69580078 56.74609375 C-156.36128906 55.28042969 -156.36128906 55.28042969 -156.02001953 53.78515625 C-149.19557128 27.91086778 -133.62889858 8.34982024 -111.69580078 -6.25390625 C-110.68001953 -6.93066406 -109.66423828 -7.60742188 -108.61767578 -8.3046875 C-101.29025416 -12.879428 -94.03765177 -15.182826 -85.69580078 -17.25390625 C-84.80119141 -17.55296875 -83.90658203 -17.85203125 -82.98486328 -18.16015625 C-54.88514417 -27.05977403 -22.78101742 -16.84470278 0 0 Z " fill="#000000" transform="translate(597.69580078125,325.25390625)"/>
<path d="M0 0 C0.09498779 0.76441406 0.18997559 1.52882813 0.2878418 2.31640625 C2.97719041 23.54939007 2.97719041 23.54939007 9 44 C9.64388672 45.81177734 9.64388672 45.81177734 10.30078125 47.66015625 C16.28961468 63.70348187 24.82768637 78.04733172 36 91 C36.68280029 91.80026611 36.68280029 91.80026611 37.37939453 92.61669922 C56.31836432 114.63703603 81.31006064 128.88680519 108.81005859 137.32373047 C111.55518271 138.17144438 114.27897906 139.07814839 117 140 C112.70617618 149.20363925 107.00885594 155.83699033 100 163 C99.36835938 163.68191406 98.73671875 164.36382813 98.0859375 165.06640625 C80.64780922 183.53759901 55.05862532 191.59107209 30.29882812 192.35571289 C6.2134195 192.57573455 -15.9656073 183.61587315 -34 168 C-34.81984375 167.33613281 -35.6396875 166.67226563 -36.484375 165.98828125 C-52.19089554 152.79382844 -60.60003252 134.41310622 -66 115 C-66.17885742 114.4325708 -66.35771484 113.8651416 -66.54199219 113.28051758 C-67.67846655 107.62177185 -67.3085186 101.58267345 -67.35009766 95.82397461 C-67.36646988 94.1727877 -67.39350367 92.52166588 -67.43212891 90.87084961 C-67.7870125 75.57845247 -65.40748335 61.68258948 -57.75 48.1875 C-57.36650391 47.49011719 -56.98300781 46.79273438 -56.58789062 46.07421875 C-46.7862457 28.67749822 -22.35949174 0 0 0 Z " fill="#010101" transform="translate(389,409)"/>
</svg>
